Coordinates
version=1
nRows=11
nColumns=36
inDegrees=yes

Units are S.I. units (second, meters, Newtons, ...)
If the header above contains a line with 'inDegrees', this indicates whether rotational values are in degrees (yes) or radians (no).

endheader
time	pelvis_tilt	pelvis_list	pelvis_rotation	pelvis_tx	pelvis_ty	pelvis_tz	hip_flexion_r	hip_adduction_r	hip_rotation_r	knee_angle_r	knee_angle_r_beta	ankle_angle_r	subtalar_angle_r	mtp_angle_r	hip_flexion_l	hip_adduction_l	hip_rotation_l	knee_angle_l	knee_angle_l_beta	ankle_angle_l	subtalar_angle_l	mtp_angle_l	lumbar_extension	lumbar_bending	lumbar_rotation	arm_flex_r	arm_add_r	arm_rot_r	elbow_flex_r	pro_sup_r	arm_flex_l	arm_add_l	arm_rot_l	elbow_flex_l	pro_sup_l
     14.88333330	     -2.42730753	     -0.56357189	     -8.16141024	      0.52782025	      0.93790286	      0.76520119	      4.80730086	      4.54395335	      3.13820945	     16.98824886	      0.29650088	     17.89563348	     -5.11207081	     -7.49999987	     31.28627534	     -4.10367885	     -7.66854501	     43.91996922	      0.76654807	     11.37307310	     -8.11951253	     -7.49999987	     -5.54621250	      2.83693152	      9.33458128	     19.92036933	    -16.03633682	      8.58354038	     34.19252875	     80.04905228	      4.47255457	     -9.41897345	      6.15643872	     18.82998987	     78.89761697
     14.90000000	     -2.58169678	     -0.37551740	     -8.35005284	      0.52401576	      0.93173049	      0.76481871	      3.77286085	      4.22898792	      2.85797033	     16.21609696	      0.28302428	     18.44712340	     -4.39825142	     -7.49999987	     32.48387135	     -4.15676505	     -7.67029312	     39.74608208	      0.69370000	     11.11824490	     -7.26837105	     -7.49999987	     -5.89628263	      2.81448283	      9.67418870	     22.24690158	    -16.78946089	      8.39512318	     35.96485762	     80.47967894	      4.71371386	     -9.39629182	      5.76249205	     18.26104126	     79.29549847
     14.91666670	     -2.92675928	     -0.35500089	     -8.54199051	      0.52361397	      0.92523606	      0.76491506	      2.76005898	      4.16857190	      2.85144303	     15.25317445	      0.26621812	     18.83791143	     -3.81964247	     -7.49999987	     33.83070480	     -4.47800574	     -7.50414887	     35.64638570	      0.62214680	     10.83632666	     -6.36741907	     -7.49999987	     -5.86409603	      2.95519782	      9.99328322	     24.37228134	    -17.39773188	      8.11383405	     37.03357918	     80.83108507	      4.85238721	     -9.21467938	      5.56970612	     17.49203404	     79.62454086
     14.93333330	     -2.55051654	     -0.19872367	     -8.75884561	      0.52433393	      0.92247469	      0.76440909	      0.82568550	      3.73262189	      2.27775906	     14.15394091	      0.24703287	     20.20705167	     -1.14919706	     -7.49999987	     34.05434502	     -4.57477245	     -7.57243365	     31.15672370	      0.54378741	     10.95947383	     -4.72859945	     -7.49999987	     -6.88502438	      2.78361527	     10.15516143	     25.79796145	    -18.08933215	      7.56042486	     39.70566909	     81.60890052	      4.89119819	     -8.99500558	      4.35742966	     17.12115143	     80.24854059
     14.95000000	     -2.59626740	     -0.09230221	     -9.00318134	      0.52415238	      0.92183964	      0.76336151	     -0.73445276	      3.50289181	      2.49287070	     13.04891018	      0.22774645	     21.09379195	      0.38711846	     -7.49999987	     34.62235792	     -4.69668841	     -7.53056788	     26.90723328	      0.46961981	     11.22981998	     -2.92385306	     -7.49999987	     -7.17480981	      2.68304714	     10.15209506	     26.83434337	    -18.23464889	      5.95632072	     41.18784448	     85.54986639	      4.53801147	     -8.41328435	     -0.17071193	     16.77126394	     85.84150999
     14.96666670	     -2.42558042	      0.06047909	     -9.20435803	      0.52437966	      0.92031849	      0.76184023	     -2.49163538	      3.14777519	      2.74164690	     12.11181185	      0.21139100	     22.16781139	      2.03460880	     -7.49999987	     34.90157680	     -4.61841994	     -7.46553315	     23.29044128	      0.40649488	     11.92698598	     -0.87457109	     -7.49999987	     -7.58655724	      2.51842825	      9.92260171	     27.76315295	    -18.47250221	      5.97297048	     42.24624315	     85.01193698	      4.17215214	     -8.14888098	     -0.58988872	     16.20783760	     85.28506798
     14.98333330	     -2.09860050	      0.23963202	     -9.41043697	      0.52705540	      0.91575334	      0.75993485	     -4.31504731	      2.69442732	      3.14688695	     11.47716553	      0.20031433	     23.53461288	      3.51460259	     -7.49999987	     35.08013147	     -4.43695903	     -7.24283661	     20.98851647	      0.36631872	     12.84676216	      0.64406352	     -7.49999987	     -8.05608717	      2.30858417	      9.57853896	     28.41238981	    -18.56662708	      5.87640108	     43.26082963	     84.38323957	      3.58451492	     -7.93847901	     -0.80002344	     15.99371533	     84.56833695
     15.00000000	     -1.75625313	      0.54665148	     -9.65109640	      0.53055719	      0.90968499	      0.75823351	     -6.02385281	      2.13559079	      4.30810011	     11.17116997	      0.19497370	     24.63449220	      3.40359469	     -7.49999987	     35.31129985	     -4.24167761	     -7.34050012	     20.32116495	      0.35467124	     13.92752722	      1.79195981	     -7.49999987	     -8.25307955	      1.93824590	      9.27035073	     28.63679923	    -18.60585631	      5.85891176	     44.14093593	     83.85509015	      3.05876736	     -7.74533332	     -0.92804181	     15.17935359	     83.77222786
     15.01666670	     -1.08614120	      0.84835910	     -9.56633219	      0.53223963	      0.90590004	      0.75588534	     -7.95171248	      1.42109454	      4.35846483	     11.22900878	      0.19598317	     25.88297065	      4.06846804	     -7.49999987	     35.23159509	     -3.71659553	     -6.81478240	     20.99775793	      0.36648001	     14.61705297	      1.42720188	     -7.49999987	     -8.75804586	      1.49626477	      8.64796919	     28.52573164	    -18.63197344	      5.66193524	     45.08986382	     83.97453129	      2.43194705	     -7.66612441	     -0.81001676	     14.86815444	     83.83369167
     15.03333330	     -0.25846080	      1.11114701	     -9.43985326	      0.53402661	      0.90495664	      0.75254186	     -9.97102809	      0.72941590	      4.52465872	     11.47749853	      0.20032014	     26.62808794	      4.11430673	     -7.49999987	     34.84951046	     -3.14101057	     -6.27586011	     22.64917907	      0.39530275	     14.60176506	      0.35198011	     -7.49999987	     -9.40913369	      0.97140558	      8.08773805	     28.10595560	    -18.68392897	      5.28632322	     45.81289712	     84.15573643	      1.97175907	     -7.66784646	     -0.62541276	     14.50570756	     83.94047708
     15.05000000	      0.79776738	      1.36944306	     -9.18267821	      0.53927837	      0.90572410	      0.74795819	    -12.17299459	      0.02546173	      4.53470984	     11.89407479	      0.20759077	     26.56372937	      3.54770634	     -7.49999987	     33.94624426	     -2.28541933	     -5.39451739	     24.84744586	      0.43366974	     13.78630671	     -1.51870356	     -7.49999987	    -10.24338090	      0.36643814	      7.47001093	     27.26749737	    -18.68375961	      4.72628236	     46.42625298	     84.33890092	      1.55452507	     -7.69831608	     -0.32453739	     14.21596722	     84.02560455
